# Blender v2.93.2 OBJ File: 'bulbip.blend'
# www.blender.org
o Base_Cylinder
v 0.000000 0.076452 -0.721539
v 0.000000 1.505652 -0.406705
v 0.510205 0.076452 -0.510205
v 0.287584 1.505652 -0.287584
v 0.721539 0.076452 0.000000
v 0.406705 1.505652 0.000000
v 0.510205 0.076452 0.510205
v 0.287584 1.505652 0.287584
v -0.000000 0.076452 0.721539
v -0.000000 1.505652 0.406705
v -0.510205 0.076452 0.510205
v -0.287584 1.505652 0.287584
v -0.721539 0.076452 -0.000000
v -0.406705 1.505652 0.000000
v -0.510205 0.076452 -0.510205
v -0.287584 1.505652 -0.287584
v 0.000000 -0.106729 -0.261314
v 0.184777 -0.106729 -0.184777
v 0.261314 -0.106729 0.000000
v 0.184777 -0.106729 0.184777
v -0.000000 -0.106729 0.261314
v -0.184777 -0.106729 0.184777
v -0.261314 -0.106729 0.000000
v -0.184777 -0.106729 -0.184777
v -0.000000 1.638454 -0.188972
v 0.133624 1.638454 -0.133624
v 0.188972 1.638454 0.000000
v 0.133624 1.638454 0.133624
v -0.000000 1.638454 0.188972
v -0.133624 1.638454 0.133624
v -0.188972 1.638454 0.000000
v -0.133624 1.638454 -0.133624
vt 1.000000 1.000000
vt 0.875000 0.500000
vt 1.000000 0.500000
vt 0.875000 1.000000
vt 0.750000 0.500000
vt 0.750000 1.000000
vt 0.625000 0.500000
vt 0.625000 1.000000
vt 0.500000 0.500000
vt 0.500000 1.000000
vt 0.375000 0.500000
vt 0.375000 1.000000
vt 0.250000 0.500000
vt 0.500000 1.000000
vt 0.250000 1.000000
vt 0.125000 0.500000
vt 0.000000 1.000000
vt 0.000000 0.500000
vt 0.875000 0.500000
vt 0.510000 0.250000
vt 0.580294 0.419706
vt 0.919706 0.080294
vt 0.500000 0.500000
vt 0.125000 0.500000
vt 1.000000 0.500000
vt 0.625000 0.500000
vt 0.750000 0.500000
vt 0.375000 0.500000
vt 0.250000 0.500000
vt 0.010000 0.250000
vt 0.250000 0.010000
vt 0.490000 0.250000
vt 0.125000 1.000000
vt 0.125000 1.000000
vt 0.750000 1.000000
vt 0.375000 1.000000
vt 0.000000 1.000000
vt 1.000000 1.000000
vt 0.875000 1.000000
vt 0.625000 1.000000
vt 0.250000 1.000000
vt 0.750000 0.490000
vt 0.919706 0.419706
vt 0.990000 0.250000
vt 0.750000 0.010000
vt 0.580294 0.080294
vt 0.000000 0.500000
vt 0.419706 0.419706
vt 0.250000 0.490000
vt 0.080294 0.419706
vt 0.080294 0.080294
vt 0.419706 0.080294
vn 0.3750 0.1994 -0.9053
vn 0.9053 0.1994 -0.3750
vn 0.9053 0.1994 0.3750
vn 0.3750 0.1994 0.9053
vn -0.3750 0.1994 0.9053
vn -0.9053 0.1994 0.3750
vn 0.2108 0.8345 0.5090
vn -0.9053 0.1994 -0.3750
vn -0.3750 0.1994 -0.9053
vn 0.3655 -0.9184 -0.1514
vn 0.0000 -1.0000 0.0000
vn -0.1514 -0.9184 0.3655
vn -0.1514 -0.9184 -0.3655
vn 0.1514 -0.9184 -0.3655
vn 0.3655 -0.9184 0.1514
vn -0.3655 -0.9184 0.1514
vn 0.1514 -0.9184 0.3655
vn -0.3655 -0.9184 -0.1514
vn 0.0000 1.0000 0.0000
vn -0.5090 0.8345 -0.2108
vn 0.5090 0.8345 -0.2108
vn -0.2108 0.8345 0.5090
vn -0.2108 0.8345 -0.5090
vn 0.2108 0.8345 -0.5090
vn 0.5090 0.8345 0.2108
vn -0.5090 0.8345 0.2108
s off
f 2/1/1 3/2/1 1/3/1
f 4/4/2 5/5/2 3/2/2
f 6/6/3 7/7/3 5/5/3
f 8/8/4 9/9/4 7/7/4
f 10/10/5 11/11/5 9/9/5
f 12/12/6 13/13/6 11/11/6
f 8/8/7 29/14/7 10/10/7
f 14/15/8 15/16/8 13/13/8
f 15/16/9 2/17/9 1/18/9
f 5/5/10 18/19/10 3/2/10
f 23/20/11 24/21/11 20/22/11
f 11/11/12 21/23/12 9/9/12
f 1/18/13 24/24/13 15/16/13
f 3/2/14 17/25/14 1/3/14
f 5/5/15 20/26/15 19/27/15
f 13/13/16 22/28/16 11/11/16
f 9/9/17 20/26/17 7/7/17
f 15/16/18 23/29/18 13/13/18
f 31/30/19 29/31/19 27/32/19
f 14/15/20 32/33/20 16/34/20
f 4/4/21 27/35/21 6/6/21
f 10/10/22 30/36/22 12/12/22
f 16/34/23 25/37/23 2/17/23
f 4/4/24 25/38/24 26/39/24
f 6/6/25 28/40/25 8/8/25
f 12/12/26 31/41/26 14/15/26
f 2/1/1 4/4/1 3/2/1
f 4/4/2 6/6/2 5/5/2
f 6/6/3 8/8/3 7/7/3
f 8/8/4 10/10/4 9/9/4
f 10/10/5 12/12/5 11/11/5
f 12/12/6 14/15/6 13/13/6
f 8/8/7 28/40/7 29/14/7
f 14/15/8 16/34/8 15/16/8
f 15/16/9 16/34/9 2/17/9
f 5/5/10 19/27/10 18/19/10
f 24/21/11 17/42/11 18/43/11
f 18/43/11 19/44/11 24/21/11
f 19/44/11 20/22/11 24/21/11
f 20/22/11 21/45/11 22/46/11
f 22/46/11 23/20/11 20/22/11
f 11/11/12 22/28/12 21/23/12
f 1/18/13 17/47/13 24/24/13
f 3/2/14 18/19/14 17/25/14
f 5/5/15 7/7/15 20/26/15
f 13/13/16 23/29/16 22/28/16
f 9/9/17 21/23/17 20/26/17
f 15/16/18 24/24/18 23/29/18
f 27/32/19 26/48/19 25/49/19
f 25/49/19 32/50/19 27/32/19
f 32/50/19 31/30/19 27/32/19
f 31/30/19 30/51/19 29/31/19
f 29/31/19 28/52/19 27/32/19
f 14/15/20 31/41/20 32/33/20
f 4/4/21 26/39/21 27/35/21
f 10/10/22 29/14/22 30/36/22
f 16/34/23 32/33/23 25/37/23
f 4/4/24 2/1/24 25/38/24
f 6/6/25 27/35/25 28/40/25
f 12/12/26 30/36/26 31/41/26
o Stem_Cylinder.001
v -0.000000 1.364035 -0.363655
v -0.000000 4.528292 -0.116299
v 0.257143 1.364035 -0.257143
v 0.082236 4.528292 -0.082236
v 0.363655 1.364035 0.000000
v 0.116299 4.528292 0.000000
v 0.257143 1.364035 0.257143
v 0.082236 4.528292 0.082236
v -0.000000 1.364035 0.363655
v -0.000000 4.528292 0.116299
v -0.257143 1.364035 0.257143
v -0.082236 4.528292 0.082236
v -0.363655 1.364035 0.000000
v -0.116299 4.528292 0.000000
v -0.257143 1.364035 -0.257143
v -0.082236 4.528292 -0.082236
v -0.000000 1.271712 -0.131702
v 0.093128 1.271712 -0.093128
v 0.131702 1.271712 0.000000
v 0.093128 1.271712 0.093128
v -0.000000 1.271712 0.131702
v -0.093128 1.271712 0.093128
v -0.131702 1.271712 0.000000
v -0.093128 1.271712 -0.093128
v -0.000000 4.566267 -0.054037
v 0.038210 4.566267 -0.038210
v 0.054037 4.566267 0.000000
v 0.038210 4.566267 0.038210
v -0.000000 4.566267 0.054037
v -0.038210 4.566267 0.038210
v -0.054037 4.566267 0.000000
v -0.038210 4.566267 -0.038210
vt 1.000000 1.000000
vt 0.875000 0.500000
vt 1.000000 0.500000
vt 0.875000 1.000000
vt 0.750000 0.500000
vt 0.750000 1.000000
vt 0.625000 0.500000
vt 0.625000 1.000000
vt 0.500000 0.500000
vt 0.500000 1.000000
vt 0.375000 0.500000
vt 0.375000 1.000000
vt 0.250000 0.500000
vt 0.500000 1.000000
vt 0.250000 1.000000
vt 0.125000 0.500000
vt 0.125000 1.000000
vt 0.000000 0.500000
vt 0.875000 0.500000
vt 0.580294 0.419706
vt 0.919706 0.419706
vt 0.919706 0.080294
vt 0.500000 0.500000
vt 0.125000 0.500000
vt 1.000000 0.500000
vt 0.750000 0.500000
vt 0.375000 0.500000
vt 0.625000 0.500000
vt 0.250000 0.500000
vt 0.010000 0.250000
vt 0.250000 0.010000
vt 0.490000 0.250000
vt 0.125000 1.000000
vt 0.750000 1.000000
vt 0.375000 1.000000
vt 0.000000 1.000000
vt 0.000000 1.000000
vt 1.000000 1.000000
vt 0.875000 1.000000
vt 0.625000 1.000000
vt 0.250000 1.000000
vt 0.750000 0.490000
vt 0.990000 0.250000
vt 0.750000 0.010000
vt 0.580294 0.080294
vt 0.510000 0.250000
vt 0.000000 0.500000
vt 0.419706 0.419706
vt 0.250000 0.490000
vt 0.080294 0.419706
vt 0.080294 0.080294
vt 0.419706 0.080294
vn 0.3817 0.0720 -0.9215
vn 0.9215 0.0720 -0.3817
vn 0.9215 0.0720 0.3817
vn 0.3817 0.0720 0.9215
vn -0.3817 0.0720 0.9215
vn -0.9215 0.0720 0.3817
vn 0.2108 0.8345 0.5090
vn -0.9215 0.0720 -0.3817
vn -0.3817 0.0720 -0.9215
vn 0.3655 -0.9184 -0.1514
vn 0.0000 -1.0000 0.0000
vn -0.1514 -0.9184 0.3655
vn -0.1514 -0.9184 -0.3655
vn 0.1514 -0.9184 -0.3655
vn 0.3655 -0.9184 0.1514
vn -0.3655 -0.9184 0.1514
vn 0.1514 -0.9184 0.3655
vn -0.3655 -0.9184 -0.1514
vn 0.0000 1.0000 0.0000
vn -0.5090 0.8345 -0.2108
vn 0.5090 0.8345 -0.2108
vn -0.2108 0.8345 0.5090
vn -0.2108 0.8345 -0.5090
vn 0.2108 0.8345 -0.5090
vn 0.5090 0.8345 0.2108
vn -0.5090 0.8345 0.2108
s off
f 34/53/27 35/54/27 33/55/27
f 36/56/28 37/57/28 35/54/28
f 38/58/29 39/59/29 37/57/29
f 40/60/30 41/61/30 39/59/30
f 42/62/31 43/63/31 41/61/31
f 44/64/32 45/65/32 43/63/32
f 40/60/33 61/66/33 42/62/33
f 46/67/34 47/68/34 45/65/34
f 48/69/35 33/70/35 47/68/35
f 37/57/36 50/71/36 35/54/36
f 56/72/37 50/73/37 52/74/37
f 43/63/38 53/75/38 41/61/38
f 33/70/39 56/76/39 47/68/39
f 35/54/40 49/77/40 33/55/40
f 39/59/41 51/78/41 37/57/41
f 45/65/42 54/79/42 43/63/42
f 41/61/43 52/80/43 39/59/43
f 47/68/44 55/81/44 45/65/44
f 63/82/45 61/83/45 59/84/45
f 46/67/46 64/85/46 48/69/46
f 36/56/47 59/86/47 38/58/47
f 44/64/48 61/66/48 62/87/48
f 34/88/49 64/85/49 57/89/49
f 36/56/50 57/90/50 58/91/50
f 38/58/51 60/92/51 40/60/51
f 44/64/52 63/93/52 46/67/52
f 34/53/27 36/56/27 35/54/27
f 36/56/28 38/58/28 37/57/28
f 38/58/29 40/60/29 39/59/29
f 40/60/30 42/62/30 41/61/30
f 42/62/31 44/64/31 43/63/31
f 44/64/32 46/67/32 45/65/32
f 40/60/33 60/92/33 61/66/33
f 46/67/34 48/69/34 47/68/34
f 48/69/35 34/88/35 33/70/35
f 37/57/36 51/78/36 50/71/36
f 56/72/37 49/94/37 50/73/37
f 50/73/37 51/95/37 52/74/37
f 52/74/37 53/96/37 54/97/37
f 54/97/37 55/98/37 52/74/37
f 55/98/37 56/72/37 52/74/37
f 43/63/38 54/79/38 53/75/38
f 33/70/39 49/99/39 56/76/39
f 35/54/40 50/71/40 49/77/40
f 39/59/41 52/80/41 51/78/41
f 45/65/42 55/81/42 54/79/42
f 41/61/43 53/75/43 52/80/43
f 47/68/44 56/76/44 55/81/44
f 59/84/45 58/100/45 57/101/45
f 57/101/45 64/102/45 63/82/45
f 63/82/45 62/103/45 61/83/45
f 61/83/45 60/104/45 59/84/45
f 59/84/45 57/101/45 63/82/45
f 46/67/46 63/93/46 64/85/46
f 36/56/47 58/91/47 59/86/47
f 44/64/48 42/62/48 61/66/48
f 34/88/49 48/69/49 64/85/49
f 36/56/50 34/53/50 57/90/50
f 38/58/51 59/86/51 60/92/51
f 44/64/52 62/87/52 63/93/52
o Sphere
v 0.000000 4.663104 -0.629010
v 0.000000 4.797198 -0.707107
v -0.000000 5.013912 -1.211667
v 0.000000 4.713829 -1.000000
v 0.000000 4.331146 -0.923880
v 0.000000 4.006722 -0.707107
v 0.000000 3.789949 -0.382683
v 0.444778 4.663104 -0.444778
v 0.500000 4.797198 -0.500000
v 0.856778 5.013912 -0.856778
v 0.707107 4.713829 -0.707107
v 0.653282 4.331146 -0.653282
v 0.500000 4.006722 -0.500000
v 0.270598 3.789949 -0.270598
v 0.629010 4.663104 0.000000
v 0.707107 4.797198 0.000000
v 1.211667 5.013912 0.000000
v 1.000000 4.713829 0.000000
v 0.923880 4.331146 0.000000
v 0.707107 4.006722 0.000000
v 0.382684 3.789949 0.000000
v 0.444778 4.663104 0.444778
v 0.500000 4.797198 0.500000
v 0.856778 5.013912 0.856778
v 0.707107 4.713829 0.707107
v 0.653282 4.331146 0.653282
v 0.500000 4.006722 0.500000
v 0.270598 3.789949 0.270598
v 0.000000 4.663104 0.629011
v 0.000000 4.797198 0.707107
v 0.000000 5.013912 1.211667
v 0.000000 4.713829 1.000000
v 0.000000 4.331146 0.923880
v 0.000000 4.006722 0.707107
v 0.000000 3.789949 0.382684
v -0.000000 4.788222 0.000000
v -0.444778 4.663104 0.444778
v -0.500000 4.797198 0.500000
v -0.856778 5.013912 0.856778
v -0.707107 4.713829 0.707107
v -0.653282 4.331146 0.653282
v -0.500000 4.006722 0.500000
v -0.270598 3.789949 0.270598
v -0.629010 4.663104 0.000000
v -0.707107 4.797198 0.000000
v -1.211667 5.013912 0.000000
v -1.000000 4.713829 0.000000
v -0.923880 4.331146 0.000000
v -0.707107 4.006722 0.000000
v -0.382684 3.789949 0.000000
v 0.000000 3.713829 0.000000
v -0.444778 4.663104 -0.444778
v -0.500000 4.797198 -0.500000
v -0.856778 5.013912 -0.856778
v -0.707107 4.713829 -0.707107
v -0.653282 4.331146 -0.653281
v -0.500000 4.006722 -0.500000
v -0.270598 3.789949 -0.270598
vt 0.750000 0.375000
vt 0.625000 0.250000
vt 0.750000 0.250000
vt 0.750000 0.625000
vt 0.625000 0.500000
vt 0.750000 0.500000
vt 0.750000 0.875000
vt 0.625000 0.750000
vt 0.750000 0.750000
vt 0.625000 0.125000
vt 0.750000 0.125000
vt 0.625000 0.375000
vt 0.625000 0.625000
vt 0.687500 1.000000
vt 0.625000 0.875000
vt 0.687500 0.000000
vt 0.500000 0.125000
vt 0.500000 0.500000
vt 0.500000 0.375000
vt 0.500000 0.625000
vt 0.562500 1.000000
vt 0.500000 0.875000
vt 0.562500 0.000000
vt 0.500000 0.250000
vt 0.500000 0.750000
vt 0.375000 0.625000
vt 0.437500 1.000000
vt 0.375000 0.875000
vt 0.437500 0.000000
vt 0.375000 0.125000
vt 0.375000 0.375000
vt 0.375000 0.250000
vt 0.375000 0.500000
vt 0.375000 0.750000
vt 0.312500 0.000000
vt 0.250000 0.125000
vt 0.250000 0.250000
vt 0.250000 0.500000
vt 0.250000 0.750000
vt 0.250000 0.375000
vt 0.250000 0.625000
vt 0.312500 1.000000
vt 0.250000 0.875000
vt 0.125000 0.750000
vt 0.125000 0.250000
vt 0.125000 0.125000
vt 0.125000 0.375000
vt 0.125000 0.625000
vt 0.187500 1.000000
vt 0.125000 0.875000
vt 0.187500 0.000000
vt 0.125000 0.500000
vt 0.000000 0.250000
vt 0.000000 0.125000
vt 0.000000 0.500000
vt 0.000000 0.375000
vt 0.000000 0.625000
vt 0.062500 1.000000
vt 0.000000 0.875000
vt 0.062500 0.000000
vt 0.000000 0.750000
vt 1.000000 0.875000
vt 0.937500 1.000000
vt 0.875000 0.875000
vt 0.937500 0.000000
vt 1.000000 0.125000
vt 0.875000 0.125000
vt 1.000000 0.375000
vt 0.875000 0.250000
vt 1.000000 0.250000
vt 1.000000 0.625000
vt 0.875000 0.500000
vt 1.000000 0.500000
vt 0.875000 0.750000
vt 1.000000 0.750000
vt 0.875000 0.375000
vt 0.875000 0.625000
vt 0.812500 1.000000
vt 0.812500 0.000000
vn 0.3256 -0.5253 -0.7862
vn 0.3206 -0.5460 -0.7740
vn -0.3370 0.4738 0.8136
vn 0.2243 -0.8103 -0.5414
vn 0.3764 -0.1807 -0.9087
vn -0.1613 0.9068 0.3895
vn 0.0805 0.9776 -0.1945
vn 0.0805 -0.9776 -0.1945
vn 0.5414 -0.8103 -0.2243
vn 0.9087 -0.1807 -0.3764
vn -0.3895 0.9068 0.1613
vn 0.1945 0.9776 -0.0805
vn 0.1945 -0.9776 -0.0805
vn 0.7862 -0.5253 -0.3256
vn 0.7740 -0.5460 -0.3206
vn -0.8136 0.4738 0.3370
vn -0.3895 0.9068 -0.1613
vn 0.1945 0.9776 0.0805
vn 0.1945 -0.9776 0.0805
vn 0.7862 -0.5253 0.3256
vn 0.7740 -0.5460 0.3206
vn -0.8136 0.4738 -0.3370
vn 0.5414 -0.8103 0.2243
vn 0.9087 -0.1807 0.3764
vn 0.0805 -0.9776 0.1945
vn 0.3256 -0.5253 0.7862
vn 0.3206 -0.5460 0.7740
vn -0.3370 0.4738 -0.8136
vn 0.2243 -0.8103 0.5414
vn 0.3764 -0.1807 0.9087
vn -0.1613 0.9068 -0.3895
vn 0.0805 0.9776 0.1945
vn 0.3370 0.4738 -0.8136
vn -0.2243 -0.8103 0.5414
vn -0.3764 -0.1807 0.9087
vn 0.1613 0.9068 -0.3895
vn -0.0805 0.9776 0.1945
vn -0.0805 -0.9776 0.1945
vn -0.3256 -0.5253 0.7862
vn -0.3206 -0.5460 0.7740
vn -0.5414 -0.8103 0.2243
vn -0.9087 -0.1807 0.3764
vn 0.3895 0.9068 -0.1613
vn -0.1945 0.9776 0.0805
vn -0.1945 -0.9776 0.0805
vn -0.7862 -0.5253 0.3256
vn -0.7740 -0.5460 0.3206
vn 0.8136 0.4738 -0.3370
vn -0.1945 0.9776 -0.0805
vn -0.1945 -0.9776 -0.0805
vn -0.7862 -0.5253 -0.3256
vn -0.7740 -0.5460 -0.3206
vn 0.8136 0.4738 0.3370
vn -0.5414 -0.8103 -0.2243
vn -0.9087 -0.1807 -0.3764
vn 0.3895 0.9068 0.1613
vn -0.3256 -0.5253 -0.7862
vn -0.3206 -0.5460 -0.7740
vn 0.3370 0.4738 0.8136
vn -0.2243 -0.8103 -0.5414
vn -0.3764 -0.1807 -0.9087
vn 0.1613 0.9068 0.3895
vn -0.0805 0.9776 -0.1945
vn -0.0805 -0.9776 -0.1945
s off
f 69/105/53 77/106/53 70/107/53
f 67/108/54 75/109/54 68/110/54
f 65/111/55 73/112/55 66/113/55
f 70/107/56 78/114/56 71/115/56
f 68/110/57 76/116/57 69/105/57
f 66/113/58 74/117/58 67/108/58
f 65/111/59 100/118/59 72/119/59
f 115/120/60 71/115/60 78/114/60
f 77/106/61 85/121/61 78/114/61
f 76/116/62 82/122/62 83/123/62
f 73/112/63 81/124/63 74/117/63
f 72/119/64 100/125/64 79/126/64
f 115/127/65 78/114/65 85/121/65
f 76/116/66 84/128/66 77/106/66
f 74/117/67 82/122/67 75/109/67
f 73/112/68 79/126/68 80/129/68
f 80/129/69 88/130/69 81/124/69
f 79/126/70 100/131/70 86/132/70
f 115/133/71 85/121/71 92/134/71
f 84/128/72 90/135/72 91/136/72
f 81/124/73 89/137/73 82/122/73
f 79/126/74 87/138/74 80/129/74
f 84/128/75 92/134/75 85/121/75
f 83/123/76 89/137/76 90/135/76
f 115/139/77 92/134/77 99/140/77
f 90/135/78 98/141/78 91/136/78
f 88/130/79 96/142/79 89/137/79
f 86/132/80 94/143/80 87/138/80
f 91/136/81 99/140/81 92/134/81
f 89/137/82 97/144/82 90/135/82
f 88/130/83 94/143/83 95/145/83
f 86/132/84 100/146/84 93/147/84
f 93/147/85 102/148/85 94/143/85
f 99/140/86 106/149/86 107/150/86
f 96/142/87 105/151/87 97/144/87
f 94/143/88 103/152/88 95/145/88
f 93/147/89 100/153/89 101/154/89
f 115/155/90 99/140/90 107/150/90
f 97/144/91 106/149/91 98/141/91
f 95/145/92 104/156/92 96/142/92
f 107/150/93 113/157/93 114/158/93
f 105/151/94 111/159/94 112/160/94
f 102/148/95 110/161/95 103/152/95
f 101/154/96 100/162/96 108/163/96
f 115/164/97 107/150/97 114/158/97
f 105/151/98 113/157/98 106/149/98
f 103/152/99 111/159/99 104/156/99
f 101/154/100 109/165/100 102/148/100
f 108/166/101 100/167/101 116/168/101
f 115/169/102 114/170/102 122/171/102
f 112/172/103 121/173/103 113/174/103
f 110/175/104 119/176/104 111/177/104
f 108/166/105 117/178/105 109/179/105
f 113/174/106 122/171/106 114/170/106
f 111/177/107 120/180/107 112/172/107
f 109/179/108 118/181/108 110/175/108
f 120/180/109 70/107/109 121/173/109
f 119/176/110 67/108/110 68/110/110
f 116/168/111 66/113/111 117/178/111
f 121/173/112 71/115/112 122/171/112
f 119/176/113 69/105/113 120/180/113
f 118/181/114 66/113/114 67/108/114
f 116/168/115 100/182/115 65/111/115
f 115/183/116 122/171/116 71/115/116
f 69/105/53 76/116/53 77/106/53
f 67/108/54 74/117/54 75/109/54
f 65/111/55 72/119/55 73/112/55
f 70/107/56 77/106/56 78/114/56
f 68/110/57 75/109/57 76/116/57
f 66/113/58 73/112/58 74/117/58
f 77/106/61 84/128/61 85/121/61
f 76/116/62 75/109/62 82/122/62
f 73/112/63 80/129/63 81/124/63
f 76/116/66 83/123/66 84/128/66
f 74/117/67 81/124/67 82/122/67
f 73/112/68 72/119/68 79/126/68
f 80/129/69 87/138/69 88/130/69
f 84/128/72 83/123/72 90/135/72
f 81/124/73 88/130/73 89/137/73
f 79/126/74 86/132/74 87/138/74
f 84/128/75 91/136/75 92/134/75
f 83/123/76 82/122/76 89/137/76
f 90/135/78 97/144/78 98/141/78
f 88/130/79 95/145/79 96/142/79
f 86/132/80 93/147/80 94/143/80
f 91/136/81 98/141/81 99/140/81
f 89/137/82 96/142/82 97/144/82
f 88/130/83 87/138/83 94/143/83
f 93/147/85 101/154/85 102/148/85
f 99/140/86 98/141/86 106/149/86
f 96/142/87 104/156/87 105/151/87
f 94/143/88 102/148/88 103/152/88
f 97/144/91 105/151/91 106/149/91
f 95/145/92 103/152/92 104/156/92
f 107/150/93 106/149/93 113/157/93
f 105/151/94 104/156/94 111/159/94
f 102/148/95 109/165/95 110/161/95
f 105/151/98 112/160/98 113/157/98
f 103/152/99 110/161/99 111/159/99
f 101/154/100 108/163/100 109/165/100
f 112/172/103 120/180/103 121/173/103
f 110/175/104 118/181/104 119/176/104
f 108/166/105 116/168/105 117/178/105
f 113/174/106 121/173/106 122/171/106
f 111/177/107 119/176/107 120/180/107
f 109/179/108 117/178/108 118/181/108
f 120/180/109 69/105/109 70/107/109
f 119/176/110 118/181/110 67/108/110
f 116/168/111 65/111/111 66/113/111
f 121/173/112 70/107/112 71/115/112
f 119/176/113 68/110/113 69/105/113
f 118/181/114 117/178/114 66/113/114
